<svg xmlns="http://www.w3.org/2000/svg" width="189" height="44" viewBox="0 0 189 44">
    <g fill="none" fillRule="evenodd">
        <path fill="#000" d="M56 11.002L56 44 64.869 44 64.869 19.47 72 19.47 72 11zM124.301 18.123l.156-.01c3.125.019 4.287.745 6.84 3.333l.829.848 5.865-5.955-.682-.813c-3.452-4.103-7.849-6.174-13.039-6.145l-.154.01c-8.993.069-16.29 7.508-16.29 16.643 0 10.411 8.548 16.855 16.508 16.855 5.174 0 9.54-2.07 12.975-6.153l.682-.81-5.862-5.96-.83.848c-2.569 2.608-3.709 3.316-6.816 3.337-4.256-.035-7.466-3.48-7.466-8.012 0-5.5 3.776-8.01 7.284-8.016M23.93 24.938c0 .81-.053 1.68-.17 2.543l7.633 7.739c1.51-2.515 2.255-5.884 2.255-10.282V3.93H23.93v21.008z"/>
        <path fill="#C00" d="M31.393 35.22L.675 3.928v21.01c0 6.065 1.544 9.46 2.859 11.24 2.375 3.235 7.215 6.694 13.677 6.694 5.531 0 10.67-2.597 13.744-6.949.158-.222.304-.454.448-.692l-.01-.01z"/>
        <path fill="#000" d="M47.315.018L38.127 9.386 38.127 42.608 47.315 42.608 47.315 17.91 53.283 17.91 53.283 9.383 47.315 9.383zM182.821.004L173.632 9.386 173.632 42.609 182.821 42.609 182.821 17.896 188.787 17.896 188.787 9.371 182.821 9.371zM166.597 14.33c-2.276-2.943-6.208-4.92-9.782-4.92-2.362 0-4.489.609-6.342 1.815V.005l-9.19 9.38s-.075 32.17 0 33.223h9.19v-16.66c0-5.468 1.4-7.802 4.68-7.802 3.443 0 4.783 2.158 4.783 7.695v16.767h9.19V24.315c0-2.348 0-6.722-2.53-9.984M82.67 22.504c1.517-3.785 4.727-4.382 6.6-4.382 3.197 0 5.416 1.546 6.344 4.382H82.67zm22.598 3.262c0-8.053-6.004-16.38-16.05-16.38-10.21 0-16.311 8.57-16.311 16.853 0 9.333 7.188 16.644 16.363 16.644 4.76 0 9.196-1.75 12.433-4.853l-6.007-6.092c-1.856 1.577-3.507 2.148-6.062 2.198-2.22-.02-4.219-.95-5.658-2.436-.295-.305-.562-.634-.806-.982-.058-.089-.123-.18-.175-.265h-.005c-.255-.398-.488-.816-.673-1.26h22.581c.177-.86.37-2.042.37-3.427z"/>
    </g>
</svg>
